<svg xmlns="http://www.w3.org/2000/svg" xml:space="preserve" width="1000px" height="159.622px" x="0px" y="0px" viewBox="0 0 1000 159.622"><g fill="#F47B20"><path d="M639.052 5.027c0 .942.738 1.686 1.688 1.686v.045c4.054 0 7.314 3.318 7.314 7.32V155.58h10.201c7.689 0 13.859-6.747 13.859-15.224V3.15H640.74c-.95 0-1.688.917-1.688 1.877M125.389 5.027c0 .942.734 1.686 1.694 1.686v.045c4.041 0 7.23 3.318 7.23 7.32v25.854h-15.316V3.15H88.192c-.948 0-1.731.917-1.731 1.877 0 .942.784 1.686 1.731 1.686v.045c4.013 0 7.171 3.318 7.171 7.32V155.58h10.345c7.296 0 13.25-6.476 13.25-14.433V57.391h15.296v98.188h11.686c7.62 0 12.41-6.747 12.41-15.224V3.15h-31.266c-.961 0-1.695.917-1.695 1.877M603.096 3.15c-.968 0-1.694.917-1.694 1.877 0 .942.727 1.686 1.694 1.686v.045c4.07 0 7.271 3.318 7.271 7.32v32.493h-24.293c-3.586.132-4 1.584-2.67 3.673l7.517 12.174h19.446v93.162h10.559c7.348 0 13.224-6.476 13.224-14.433V3.15h-31.054zM462.907 3.249c-.943 0-1.72.818-1.72 1.778 0 .942.777 1.686 1.72 1.686v.045c4.038 0 7.413 3.318 7.413 7.352v7.966h-27.056c-3.616.058-3.974 1.616-2.65 3.715l6.625 10.729h23.029v11.229h-27.004c-3.616.08-3.974 1.678-2.65 3.7l6.625 10.74h23.029v18.069h10.425c8.086 0 14.656-7.192 14.656-16.131V3.249h-32.442zM429.435 3.218h-75.9c-3.581.116-3.976 1.625-2.636 3.719l7.805 12.713h47.419c-5.859 30.272-33.941 52.553-56.092 58.97-1.661.479-2.537 1.639-2.173 3.212.189 1.229 1.908 1.968 3.042 1.968 31.424.926 75.882-21.268 85.716-68.593 1.694-7.841-2.657-11.989-7.181-11.989"/><path d="M561.451 73.666c2.032 4.027 23.042 33.432 27.348 38.388 4.369 4.919 7.188 6.24 8.31 1.35v-24.17c0-2.267-.638-2.973-2.286-3.708-6.218-2.943-24.438-17.887-27.08-21.85 7.507-11.369 21.057-40.711 21.057-51.93 0-4.719-3.314-8.528-7.557-8.528h-58.806c-3.625.103-3.983 1.625-2.662 3.719l7.879 12.729h30.869c-2.816 32.075-23.129 73.11-43.844 89.157-1.7 1.295-2.144 2.417-1.466 3.642.571.938 2.079 1.163 4.094.67 6.087-1.348 26.665-15.019 44.144-39.469M33.194 19.511h21.504v74.341H33.194V19.511zM0 4.935c0 .921.754 1.687 1.689 1.687v.114c4.06 0 7.374 3.724 7.374 7.314v78.813c0 10.698 7.853 17.681 17.575 17.681h35.977c9.016 0 16.279-7.377 16.279-16.381V3.218H1.689C.754 3.218 0 3.993 0 4.935M434.599 143.765c-18.294 0-35.589-12.129-35.589-25.35 0-13.269 17.295-23.998 35.589-23.998 18.25 0 35.605 10.729 35.605 23.998 0 13.221-17.355 25.35-35.605 25.35m0-65.18c-36.025 0-60.003 17.845-60.003 39.83 0 21.94 23.978 41.206 60.003 41.206 36.026 0 59.976-19.266 59.976-41.206 0-21.985-23.95-39.83-59.976-39.83M292.705 4.683c0 .91.762 1.687 1.727 1.687v.127c3.967 0 7.459 3.266 7.459 7.239v61.006h11.706c8.158 0 14.705-7.211 14.705-16.104V2.906h-33.87c-.965 0-1.727.804-1.727 1.777M227.503 59.717c-13.469 0-24.403-9.999-24.403-22.386 0-12.335 10.934-22.377 24.403-22.377 13.451 0 24.37 10.042 24.37 22.377 0 12.387-10.919 22.386-24.37 22.386M227.466 0c-30.625 0-49.237 16.692-49.237 37.331 0 20.625 18.611 37.376 49.237 37.376 30.65 0 49.314-16.751 49.314-37.376C276.78 16.693 258.116 0 227.466 0M330.575 138.991h-94.322v-12.044h77.234c8.192 0 14.846-7.298 14.846-16.354v-27.71H205.552c-2.899 0-3.328 1.608-2 3.686l7.56 12.286h91.763v11.689h-99.616c-.949 0-1.708.749-1.708 1.698a1.71 1.71 0 0 0 1.708 1.716v.087c4.055 0 7.394 3.307 7.394 7.388v17.649c0 10.818 8.003 16.51 17.75 16.51h102.173v-16.601zM789.596 153.554V29.88h52.499V3.975H706.704V29.88h52.501v123.674zM935.184 155.468 1000 3.975h-31.112l-42.583 99.666-44.613-99.666H850.17l67.837 151.493z"/></g></svg>